<?xml version="1.0" encoding="utf-8" standalone="no"?>
<!DOCTYPE svg PUBLIC "-//W3C//DTD SVG 1.1//EN"
  "http://www.w3.org/Graphics/SVG/1.1/DTD/svg11.dtd">
<!-- Created with matplotlib (https://matplotlib.org/) -->
<svg height="345.6pt" version="1.1" viewBox="0 0 460.8 345.6" width="460.8pt" xmlns="http://www.w3.org/2000/svg" xmlns:xlink="http://www.w3.org/1999/xlink">
 <defs>
  <style type="text/css">
*{stroke-linecap:butt;stroke-linejoin:round;}
  </style>
 </defs>
 <g id="figure_1">
  <g id="patch_1">
   <path d="M 0 345.6 
L 460.8 345.6 
L 460.8 0 
L 0 0 
z
" style="fill:#ffffff;"/>
  </g>
  <g id="axes_1">
   <g id="patch_2">
    <path d="M 57.6 307.584 
L 414.72 307.584 
L 414.72 41.472 
L 57.6 41.472 
z
" style="fill:#ffffff;"/>
   </g>
   <g id="matplotlib.axis_1">
    <g id="xtick_1">
     <g id="line2d_1">
      <path clip-path="url(#p863177735d)" d="M 57.6 307.584 
L 57.6 41.472 
" style="fill:none;stroke:#b0b0b0;stroke-linecap:square;stroke-width:0.8;"/>
     </g>
     <g id="line2d_2">
      <defs>
       <path d="M 0 0 
L 0 3.5 
" id="m5a76c16495" style="stroke:#000000;stroke-width:0.8;"/>
      </defs>
      <g>
       <use style="stroke:#000000;stroke-width:0.8;" x="57.6" xlink:href="#m5a76c16495" y="307.584"/>
      </g>
     </g>
     <g id="text_1">
      <!-- 0 -->
      <defs>
       <path d="M 31.78125 66.40625 
Q 24.171875 66.40625 20.328125 58.90625 
Q 16.5 51.421875 16.5 36.375 
Q 16.5 21.390625 20.328125 13.890625 
Q 24.171875 6.390625 31.78125 6.390625 
Q 39.453125 6.390625 43.28125 13.890625 
Q 47.125 21.390625 47.125 36.375 
Q 47.125 51.421875 43.28125 58.90625 
Q 39.453125 66.40625 31.78125 66.40625 
z
M 31.78125 74.21875 
Q 44.046875 74.21875 50.515625 64.515625 
Q 56.984375 54.828125 56.984375 36.375 
Q 56.984375 17.96875 50.515625 8.265625 
Q 44.046875 -1.421875 31.78125 -1.421875 
Q 19.53125 -1.421875 13.0625 8.265625 
Q 6.59375 17.96875 6.59375 36.375 
Q 6.59375 54.828125 13.0625 64.515625 
Q 19.53125 74.21875 31.78125 74.21875 
z
" id="DejaVuSans-48"/>
      </defs>
      <g transform="translate(54.41875 322.182437)scale(0.1 -0.1)">
       <use xlink:href="#DejaVuSans-48"/>
      </g>
     </g>
    </g>
    <g id="xtick_2">
     <g id="line2d_3">
      <path clip-path="url(#p863177735d)" d="M 129.024 307.584 
L 129.024 41.472 
" style="fill:none;stroke:#b0b0b0;stroke-linecap:square;stroke-width:0.8;"/>
     </g>
     <g id="line2d_4">
      <g>
       <use style="stroke:#000000;stroke-width:0.8;" x="129.024" xlink:href="#m5a76c16495" y="307.584"/>
      </g>
     </g>
     <g id="text_2">
      <!-- 20 -->
      <defs>
       <path d="M 19.1875 8.296875 
L 53.609375 8.296875 
L 53.609375 0 
L 7.328125 0 
L 7.328125 8.296875 
Q 12.9375 14.109375 22.625 23.890625 
Q 32.328125 33.6875 34.8125 36.53125 
Q 39.546875 41.84375 41.421875 45.53125 
Q 43.3125 49.21875 43.3125 52.78125 
Q 43.3125 58.59375 39.234375 62.25 
Q 35.15625 65.921875 28.609375 65.921875 
Q 23.96875 65.921875 18.8125 64.3125 
Q 13.671875 62.703125 7.8125 59.421875 
L 7.8125 69.390625 
Q 13.765625 71.78125 18.9375 73 
Q 24.125 74.21875 28.421875 74.21875 
Q 39.75 74.21875 46.484375 68.546875 
Q 53.21875 62.890625 53.21875 53.421875 
Q 53.21875 48.921875 51.53125 44.890625 
Q 49.859375 40.875 45.40625 35.40625 
Q 44.1875 33.984375 37.640625 27.21875 
Q 31.109375 20.453125 19.1875 8.296875 
z
" id="DejaVuSans-50"/>
      </defs>
      <g transform="translate(122.6615 322.182437)scale(0.1 -0.1)">
       <use xlink:href="#DejaVuSans-50"/>
       <use x="63.623047" xlink:href="#DejaVuSans-48"/>
      </g>
     </g>
    </g>
    <g id="xtick_3">
     <g id="line2d_5">
      <path clip-path="url(#p863177735d)" d="M 200.448 307.584 
L 200.448 41.472 
" style="fill:none;stroke:#b0b0b0;stroke-linecap:square;stroke-width:0.8;"/>
     </g>
     <g id="line2d_6">
      <g>
       <use style="stroke:#000000;stroke-width:0.8;" x="200.448" xlink:href="#m5a76c16495" y="307.584"/>
      </g>
     </g>
     <g id="text_3">
      <!-- 40 -->
      <defs>
       <path d="M 37.796875 64.3125 
L 12.890625 25.390625 
L 37.796875 25.390625 
z
M 35.203125 72.90625 
L 47.609375 72.90625 
L 47.609375 25.390625 
L 58.015625 25.390625 
L 58.015625 17.1875 
L 47.609375 17.1875 
L 47.609375 0 
L 37.796875 0 
L 37.796875 17.1875 
L 4.890625 17.1875 
L 4.890625 26.703125 
z
" id="DejaVuSans-52"/>
      </defs>
      <g transform="translate(194.0855 322.182437)scale(0.1 -0.1)">
       <use xlink:href="#DejaVuSans-52"/>
       <use x="63.623047" xlink:href="#DejaVuSans-48"/>
      </g>
     </g>
    </g>
    <g id="xtick_4">
     <g id="line2d_7">
      <path clip-path="url(#p863177735d)" d="M 271.872 307.584 
L 271.872 41.472 
" style="fill:none;stroke:#b0b0b0;stroke-linecap:square;stroke-width:0.8;"/>
     </g>
     <g id="line2d_8">
      <g>
       <use style="stroke:#000000;stroke-width:0.8;" x="271.872" xlink:href="#m5a76c16495" y="307.584"/>
      </g>
     </g>
     <g id="text_4">
      <!-- 60 -->
      <defs>
       <path d="M 33.015625 40.375 
Q 26.375 40.375 22.484375 35.828125 
Q 18.609375 31.296875 18.609375 23.390625 
Q 18.609375 15.53125 22.484375 10.953125 
Q 26.375 6.390625 33.015625 6.390625 
Q 39.65625 6.390625 43.53125 10.953125 
Q 47.40625 15.53125 47.40625 23.390625 
Q 47.40625 31.296875 43.53125 35.828125 
Q 39.65625 40.375 33.015625 40.375 
z
M 52.59375 71.296875 
L 52.59375 62.3125 
Q 48.875 64.0625 45.09375 64.984375 
Q 41.3125 65.921875 37.59375 65.921875 
Q 27.828125 65.921875 22.671875 59.328125 
Q 17.53125 52.734375 16.796875 39.40625 
Q 19.671875 43.65625 24.015625 45.921875 
Q 28.375 48.1875 33.59375 48.1875 
Q 44.578125 48.1875 50.953125 41.515625 
Q 57.328125 34.859375 57.328125 23.390625 
Q 57.328125 12.15625 50.6875 5.359375 
Q 44.046875 -1.421875 33.015625 -1.421875 
Q 20.359375 -1.421875 13.671875 8.265625 
Q 6.984375 17.96875 6.984375 36.375 
Q 6.984375 53.65625 15.1875 63.9375 
Q 23.390625 74.21875 37.203125 74.21875 
Q 40.921875 74.21875 44.703125 73.484375 
Q 48.484375 72.75 52.59375 71.296875 
z
" id="DejaVuSans-54"/>
      </defs>
      <g transform="translate(265.5095 322.182437)scale(0.1 -0.1)">
       <use xlink:href="#DejaVuSans-54"/>
       <use x="63.623047" xlink:href="#DejaVuSans-48"/>
      </g>
     </g>
    </g>
    <g id="xtick_5">
     <g id="line2d_9">
      <path clip-path="url(#p863177735d)" d="M 343.296 307.584 
L 343.296 41.472 
" style="fill:none;stroke:#b0b0b0;stroke-linecap:square;stroke-width:0.8;"/>
     </g>
     <g id="line2d_10">
      <g>
       <use style="stroke:#000000;stroke-width:0.8;" x="343.296" xlink:href="#m5a76c16495" y="307.584"/>
      </g>
     </g>
     <g id="text_5">
      <!-- 80 -->
      <defs>
       <path d="M 31.78125 34.625 
Q 24.75 34.625 20.71875 30.859375 
Q 16.703125 27.09375 16.703125 20.515625 
Q 16.703125 13.921875 20.71875 10.15625 
Q 24.75 6.390625 31.78125 6.390625 
Q 38.8125 6.390625 42.859375 10.171875 
Q 46.921875 13.96875 46.921875 20.515625 
Q 46.921875 27.09375 42.890625 30.859375 
Q 38.875 34.625 31.78125 34.625 
z
M 21.921875 38.8125 
Q 15.578125 40.375 12.03125 44.71875 
Q 8.5 49.078125 8.5 55.328125 
Q 8.5 64.0625 14.71875 69.140625 
Q 20.953125 74.21875 31.78125 74.21875 
Q 42.671875 74.21875 48.875 69.140625 
Q 55.078125 64.0625 55.078125 55.328125 
Q 55.078125 49.078125 51.53125 44.71875 
Q 48 40.375 41.703125 38.8125 
Q 48.828125 37.15625 52.796875 32.3125 
Q 56.78125 27.484375 56.78125 20.515625 
Q 56.78125 9.90625 50.3125 4.234375 
Q 43.84375 -1.421875 31.78125 -1.421875 
Q 19.734375 -1.421875 13.25 4.234375 
Q 6.78125 9.90625 6.78125 20.515625 
Q 6.78125 27.484375 10.78125 32.3125 
Q 14.796875 37.15625 21.921875 38.8125 
z
M 18.3125 54.390625 
Q 18.3125 48.734375 21.84375 45.5625 
Q 25.390625 42.390625 31.78125 42.390625 
Q 38.140625 42.390625 41.71875 45.5625 
Q 45.3125 48.734375 45.3125 54.390625 
Q 45.3125 60.0625 41.71875 63.234375 
Q 38.140625 66.40625 31.78125 66.40625 
Q 25.390625 66.40625 21.84375 63.234375 
Q 18.3125 60.0625 18.3125 54.390625 
z
" id="DejaVuSans-56"/>
      </defs>
      <g transform="translate(336.9335 322.182437)scale(0.1 -0.1)">
       <use xlink:href="#DejaVuSans-56"/>
       <use x="63.623047" xlink:href="#DejaVuSans-48"/>
      </g>
     </g>
    </g>
    <g id="xtick_6">
     <g id="line2d_11">
      <path clip-path="url(#p863177735d)" d="M 414.72 307.584 
L 414.72 41.472 
" style="fill:none;stroke:#b0b0b0;stroke-linecap:square;stroke-width:0.8;"/>
     </g>
     <g id="line2d_12">
      <g>
       <use style="stroke:#000000;stroke-width:0.8;" x="414.72" xlink:href="#m5a76c16495" y="307.584"/>
      </g>
     </g>
     <g id="text_6">
      <!-- 100 -->
      <defs>
       <path d="M 12.40625 8.296875 
L 28.515625 8.296875 
L 28.515625 63.921875 
L 10.984375 60.40625 
L 10.984375 69.390625 
L 28.421875 72.90625 
L 38.28125 72.90625 
L 38.28125 8.296875 
L 54.390625 8.296875 
L 54.390625 0 
L 12.40625 0 
z
" id="DejaVuSans-49"/>
      </defs>
      <g transform="translate(405.17625 322.182437)scale(0.1 -0.1)">
       <use xlink:href="#DejaVuSans-49"/>
       <use x="63.623047" xlink:href="#DejaVuSans-48"/>
       <use x="127.246094" xlink:href="#DejaVuSans-48"/>
      </g>
     </g>
    </g>
   </g>
   <g id="matplotlib.axis_2">
    <g id="ytick_1">
     <g id="line2d_13">
      <path clip-path="url(#p863177735d)" d="M 57.6 307.584 
L 414.72 307.584 
" style="fill:none;stroke:#b0b0b0;stroke-linecap:square;stroke-width:0.8;"/>
     </g>
     <g id="line2d_14">
      <defs>
       <path d="M 0 0 
L -3.5 0 
" id="m6581a7d263" style="stroke:#000000;stroke-width:0.8;"/>
      </defs>
      <g>
       <use style="stroke:#000000;stroke-width:0.8;" x="57.6" xlink:href="#m6581a7d263" y="307.584"/>
      </g>
     </g>
     <g id="text_7">
      <!-- 0 -->
      <g transform="translate(44.2375 311.383219)scale(0.1 -0.1)">
       <use xlink:href="#DejaVuSans-48"/>
      </g>
     </g>
    </g>
    <g id="ytick_2">
     <g id="line2d_15">
      <path clip-path="url(#p863177735d)" d="M 57.6 274.32 
L 414.72 274.32 
" style="fill:none;stroke:#b0b0b0;stroke-linecap:square;stroke-width:0.8;"/>
     </g>
     <g id="line2d_16">
      <g>
       <use style="stroke:#000000;stroke-width:0.8;" x="57.6" xlink:href="#m6581a7d263" y="274.32"/>
      </g>
     </g>
     <g id="text_8">
      <!-- 25 -->
      <defs>
       <path d="M 10.796875 72.90625 
L 49.515625 72.90625 
L 49.515625 64.59375 
L 19.828125 64.59375 
L 19.828125 46.734375 
Q 21.96875 47.46875 24.109375 47.828125 
Q 26.265625 48.1875 28.421875 48.1875 
Q 40.625 48.1875 47.75 41.5 
Q 54.890625 34.8125 54.890625 23.390625 
Q 54.890625 11.625 47.5625 5.09375 
Q 40.234375 -1.421875 26.90625 -1.421875 
Q 22.3125 -1.421875 17.546875 -0.640625 
Q 12.796875 0.140625 7.71875 1.703125 
L 7.71875 11.625 
Q 12.109375 9.234375 16.796875 8.0625 
Q 21.484375 6.890625 26.703125 6.890625 
Q 35.15625 6.890625 40.078125 11.328125 
Q 45.015625 15.765625 45.015625 23.390625 
Q 45.015625 31 40.078125 35.4375 
Q 35.15625 39.890625 26.703125 39.890625 
Q 22.75 39.890625 18.8125 39.015625 
Q 14.890625 38.140625 10.796875 36.28125 
z
" id="DejaVuSans-53"/>
      </defs>
      <g transform="translate(37.875 278.119219)scale(0.1 -0.1)">
       <use xlink:href="#DejaVuSans-50"/>
       <use x="63.623047" xlink:href="#DejaVuSans-53"/>
      </g>
     </g>
    </g>
    <g id="ytick_3">
     <g id="line2d_17">
      <path clip-path="url(#p863177735d)" d="M 57.6 241.056 
L 414.72 241.056 
" style="fill:none;stroke:#b0b0b0;stroke-linecap:square;stroke-width:0.8;"/>
     </g>
     <g id="line2d_18">
      <g>
       <use style="stroke:#000000;stroke-width:0.8;" x="57.6" xlink:href="#m6581a7d263" y="241.056"/>
      </g>
     </g>
     <g id="text_9">
      <!-- 50 -->
      <g transform="translate(37.875 244.855219)scale(0.1 -0.1)">
       <use xlink:href="#DejaVuSans-53"/>
       <use x="63.623047" xlink:href="#DejaVuSans-48"/>
      </g>
     </g>
    </g>
    <g id="ytick_4">
     <g id="line2d_19">
      <path clip-path="url(#p863177735d)" d="M 57.6 207.792 
L 414.72 207.792 
" style="fill:none;stroke:#b0b0b0;stroke-linecap:square;stroke-width:0.8;"/>
     </g>
     <g id="line2d_20">
      <g>
       <use style="stroke:#000000;stroke-width:0.8;" x="57.6" xlink:href="#m6581a7d263" y="207.792"/>
      </g>
     </g>
     <g id="text_10">
      <!-- 75 -->
      <defs>
       <path d="M 8.203125 72.90625 
L 55.078125 72.90625 
L 55.078125 68.703125 
L 28.609375 0 
L 18.3125 0 
L 43.21875 64.59375 
L 8.203125 64.59375 
z
" id="DejaVuSans-55"/>
      </defs>
      <g transform="translate(37.875 211.591219)scale(0.1 -0.1)">
       <use xlink:href="#DejaVuSans-55"/>
       <use x="63.623047" xlink:href="#DejaVuSans-53"/>
      </g>
     </g>
    </g>
    <g id="ytick_5">
     <g id="line2d_21">
      <path clip-path="url(#p863177735d)" d="M 57.6 174.528 
L 414.72 174.528 
" style="fill:none;stroke:#b0b0b0;stroke-linecap:square;stroke-width:0.8;"/>
     </g>
     <g id="line2d_22">
      <g>
       <use style="stroke:#000000;stroke-width:0.8;" x="57.6" xlink:href="#m6581a7d263" y="174.528"/>
      </g>
     </g>
     <g id="text_11">
      <!-- 100 -->
      <g transform="translate(31.5125 178.327219)scale(0.1 -0.1)">
       <use xlink:href="#DejaVuSans-49"/>
       <use x="63.623047" xlink:href="#DejaVuSans-48"/>
       <use x="127.246094" xlink:href="#DejaVuSans-48"/>
      </g>
     </g>
    </g>
    <g id="ytick_6">
     <g id="line2d_23">
      <path clip-path="url(#p863177735d)" d="M 57.6 141.264 
L 414.72 141.264 
" style="fill:none;stroke:#b0b0b0;stroke-linecap:square;stroke-width:0.8;"/>
     </g>
     <g id="line2d_24">
      <g>
       <use style="stroke:#000000;stroke-width:0.8;" x="57.6" xlink:href="#m6581a7d263" y="141.264"/>
      </g>
     </g>
     <g id="text_12">
      <!-- 125 -->
      <g transform="translate(31.5125 145.063219)scale(0.1 -0.1)">
       <use xlink:href="#DejaVuSans-49"/>
       <use x="63.623047" xlink:href="#DejaVuSans-50"/>
       <use x="127.246094" xlink:href="#DejaVuSans-53"/>
      </g>
     </g>
    </g>
    <g id="ytick_7">
     <g id="line2d_25">
      <path clip-path="url(#p863177735d)" d="M 57.6 108 
L 414.72 108 
" style="fill:none;stroke:#b0b0b0;stroke-linecap:square;stroke-width:0.8;"/>
     </g>
     <g id="line2d_26">
      <g>
       <use style="stroke:#000000;stroke-width:0.8;" x="57.6" xlink:href="#m6581a7d263" y="108"/>
      </g>
     </g>
     <g id="text_13">
      <!-- 150 -->
      <g transform="translate(31.5125 111.799219)scale(0.1 -0.1)">
       <use xlink:href="#DejaVuSans-49"/>
       <use x="63.623047" xlink:href="#DejaVuSans-53"/>
       <use x="127.246094" xlink:href="#DejaVuSans-48"/>
      </g>
     </g>
    </g>
    <g id="ytick_8">
     <g id="line2d_27">
      <path clip-path="url(#p863177735d)" d="M 57.6 74.736 
L 414.72 74.736 
" style="fill:none;stroke:#b0b0b0;stroke-linecap:square;stroke-width:0.8;"/>
     </g>
     <g id="line2d_28">
      <g>
       <use style="stroke:#000000;stroke-width:0.8;" x="57.6" xlink:href="#m6581a7d263" y="74.736"/>
      </g>
     </g>
     <g id="text_14">
      <!-- 175 -->
      <g transform="translate(31.5125 78.535219)scale(0.1 -0.1)">
       <use xlink:href="#DejaVuSans-49"/>
       <use x="63.623047" xlink:href="#DejaVuSans-55"/>
       <use x="127.246094" xlink:href="#DejaVuSans-53"/>
      </g>
     </g>
    </g>
    <g id="ytick_9">
     <g id="line2d_29">
      <path clip-path="url(#p863177735d)" d="M 57.6 41.472 
L 414.72 41.472 
" style="fill:none;stroke:#b0b0b0;stroke-linecap:square;stroke-width:0.8;"/>
     </g>
     <g id="line2d_30">
      <g>
       <use style="stroke:#000000;stroke-width:0.8;" x="57.6" xlink:href="#m6581a7d263" y="41.472"/>
      </g>
     </g>
     <g id="text_15">
      <!-- 200 -->
      <g transform="translate(31.5125 45.271219)scale(0.1 -0.1)">
       <use xlink:href="#DejaVuSans-50"/>
       <use x="63.623047" xlink:href="#DejaVuSans-48"/>
       <use x="127.246094" xlink:href="#DejaVuSans-48"/>
      </g>
     </g>
    </g>
   </g>
   <g id="line2d_31">
    <path clip-path="url(#p863177735d)" d="M 57.6 278.286092 
L 61.1712 274.281619 
L 64.7424 270.302732 
L 68.3136 266.298259 
L 71.8848 262.306579 
L 75.456 258.327692 
L 79.0272 254.323219 
L 82.5984 251.316664 
L 86.1696 250.472271 
L 89.7408 250.344332 
L 93.312 247.555273 
L 96.8832 246.339859 
L 100.4544 243.128603 
L 104.0256 242.348179 
L 107.5968 238.484437 
L 111.168 238.369292 
L 114.7392 234.364819 
L 118.3104 230.74416 
L 121.8816 230.385932 
L 125.4528 228.134216 
L 129.024 226.381459 
L 132.5952 225.383539 
L 136.1664 223.848277 
L 139.7376 222.658449 
L 143.3088 221.26392 
L 146.88 218.398099 
L 150.4512 218.027077 
L 154.0224 214.419212 
L 157.5936 213.958633 
L 161.1648 211.962793 
L 164.736 210.414739 
L 168.3072 206.435852 
L 171.8784 206.154388 
L 175.4496 203.595619 
L 179.0208 202.444172 
L 182.592 198.580431 
L 186.1632 198.439699 
L 189.7344 195.318 
L 193.3056 194.460812 
L 196.8768 192.093951 
L 200.448 190.456339 
L 204.0192 186.912443 
L 207.5904 186.477452 
L 211.1616 185.134099 
L 214.7328 182.485772 
L 218.304 180.566696 
L 221.8752 178.494092 
L 225.4464 177.278677 
L 229.0176 174.758289 
L 232.5888 174.489619 
L 236.16 172.941563 
L 239.7312 171.470271 
L 243.3024 170.510732 
L 246.8736 167.632117 
L 250.4448 166.506259 
L 254.016 162.514579 
L 257.5872 160.902553 
L 261.1584 158.522899 
L 264.7296 154.544012 
L 268.3008 152.279501 
L 271.872 150.590713 
L 275.4432 150.552332 
L 279.0144 147.852831 
L 282.5856 146.547859 
L 286.1568 146.061692 
L 289.728 144.014677 
L 293.2992 141.443113 
L 296.8704 139.805501 
L 300.4416 138.577292 
L 304.0128 134.572819 
L 307.584 133.152701 
L 311.1552 131.45112 
L 314.7264 130.593932 
L 318.2976 127.280327 
L 321.8688 126.602252 
L 325.44 125.438012 
L 329.0112 122.597779 
L 332.5824 120.793847 
L 336.1536 118.606099 
L 339.7248 117.288332 
L 343.296 114.627212 
L 346.8672 110.635532 
L 350.4384 110.213336 
L 354.0096 106.643852 
L 357.5808 105.556376 
L 361.152 102.652172 
L 364.7232 98.647699 
L 368.2944 94.668812 
L 371.8656 94.412936 
L 375.4368 91.649464 
L 379.008 84.766376 
L 382.5792 80.173384 
L 386.1504 77.947256 
L 389.7216 75.631569 
L 393.2928 66.42 
L 396.864 64.680037 
L 400.4352 62.952868 
L 404.0064 61.225699 
L 407.5776 56.735059 
L 411.1488 54.995096 
L 414.72 53.357483 
L 418.2912 51.707077 
L 421.8624 46.372043 
L 425.4336 44.63208 
" style="fill:none;stroke:#1f77b4;stroke-linecap:square;stroke-width:1.5;"/>
   </g>
   <g id="line2d_32">
    <path clip-path="url(#p863177735d)" d="M 57.6 278.273299 
L 61.1712 274.268824 
L 64.7424 270.289939 
L 68.3136 266.298259 
L 71.8848 262.293784 
L 75.456 258.314899 
L 79.0272 254.310424 
L 82.5984 251.854007 
L 86.1696 251.291077 
L 89.7408 246.864407 
L 93.312 246.339859 
L 96.8832 242.348179 
L 100.4544 241.580548 
L 104.0256 238.573993 
L 107.5968 238.356499 
L 111.168 234.364819 
L 114.7392 233.034259 
L 118.3104 230.731367 
L 121.8816 230.373139 
L 125.4528 226.368664 
L 129.024 224.436793 
L 132.5952 223.234172 
L 136.1664 222.376984 
L 139.7376 218.385304 
L 143.3088 214.393624 
L 146.88 210.414739 
L 150.4512 207.024369 
L 154.0224 206.423059 
L 157.5936 205.668221 
L 161.1648 204.222517 
L 164.736 202.559317 
L 168.3072 202.418584 
L 171.8784 200.857736 
L 175.4496 198.439699 
L 179.0208 194.972567 
L 182.592 194.448019 
L 186.1632 193.424511 
L 189.7344 191.82528 
L 193.3056 190.456339 
L 196.8768 190.213256 
L 200.448 187.99992 
L 204.0192 186.451864 
L 207.5904 182.472979 
L 211.1616 181.385501 
L 214.7328 179.402456 
L 218.304 178.481299 
L 221.8752 177.675287 
L 225.4464 174.489619 
L 229.0176 172.007612 
L 232.5888 171.470271 
L 236.16 166.506259 
L 239.7312 162.514579 
L 243.3024 161.708567 
L 246.8736 158.829951 
L 250.4448 158.522899 
L 254.016 157.39704 
L 257.5872 155.848984 
L 261.1584 154.531219 
L 264.7296 154.172991 
L 268.3008 150.526744 
L 271.872 146.982849 
L 275.4432 146.547859 
L 279.0144 144.603193 
L 282.5856 142.543384 
L 286.1568 141.558259 
L 289.728 138.551704 
L 293.2992 138.014363 
L 296.8704 136.415132 
L 300.4416 134.560024 
L 304.0128 133.536517 
L 307.584 130.568344 
L 311.1552 126.576664 
L 314.7264 123.710843 
L 318.2976 122.597779 
L 321.8688 122.162788 
L 325.44 120.742671 
L 329.0112 118.989913 
L 332.5824 118.606099 
L 336.1536 114.614419 
L 339.7248 113.360621 
L 343.296 111.108904 
L 346.8672 110.622739 
L 350.4384 106.618264 
L 354.0096 102.639379 
L 357.5808 98.634904 
L 361.152 94.950277 
L 364.7232 94.643224 
L 368.2944 93.491779 
L 371.8656 91.943723 
L 375.4368 91.636671 
L 379.008 90.318904 
L 382.5792 86.071348 
L 386.1504 83.499784 
L 389.7216 81.874967 
L 393.2928 77.102861 
L 396.864 70.104628 
L 400.4352 68.492603 
L 404.0064 62.748167 
L 407.5776 56.952553 
L 411.1488 51.937367 
L 414.72 50.184609 
L 418.2912 48.598172 
L 421.8624 47.472313 
L 425.4336 44.708843 
" style="fill:none;stroke:#ff7f0e;stroke-linecap:square;stroke-width:1.5;"/>
   </g>
   <g id="line2d_33">
    <path clip-path="url(#p863177735d)" d="M 57.6 278.183741 
L 61.1712 274.192061 
L 64.7424 270.200381 
L 68.3136 266.208701 
L 71.8848 262.217021 
L 75.456 258.225341 
L 79.0272 254.233661 
L 82.5984 252.839132 
L 86.1696 249.602289 
L 89.7408 249.064948 
L 93.312 246.250301 
L 96.8832 245.354732 
L 100.4544 242.258621 
L 104.0256 239.584708 
L 107.5968 238.266941 
L 111.168 234.4032 
L 114.7392 234.275261 
L 118.3104 232.663237 
L 121.8816 230.283581 
L 125.4528 227.149089 
L 129.024 226.291901 
L 132.5952 225.575447 
L 136.1664 223.451668 
L 139.7376 222.338603 
L 143.3088 218.308541 
L 146.88 217.515323 
L 150.4512 214.892584 
L 154.0224 214.316861 
L 157.5936 210.325181 
L 161.1648 207.766412 
L 164.736 206.333501 
L 168.3072 205.207643 
L 171.8784 202.380203 
L 175.4496 202.341821 
L 179.0208 198.350141 
L 182.592 197.352221 
L 186.1632 195.625052 
L 189.7344 194.358461 
L 193.3056 193.897883 
L 196.8768 190.366781 
L 200.448 187.820807 
L 204.0192 186.375101 
L 207.5904 186.195988 
L 211.1616 185.108511 
L 214.7328 182.383421 
L 218.304 181.257563 
L 221.8752 178.391741 
L 225.4464 174.617557 
L 229.0176 174.412856 
L 232.5888 173.005532 
L 236.16 170.497939 
L 239.7312 169.231348 
L 243.3024 166.416701 
L 246.8736 164.305717 
L 250.4448 162.425021 
L 254.016 162.092381 
L 257.5872 158.433341 
L 261.1584 154.441661 
L 264.7296 153.955496 
L 268.3008 152.215532 
L 271.872 150.449981 
L 275.4432 149.951021 
L 279.0144 147.315489 
L 282.5856 146.471096 
L 286.1568 143.656449 
L 289.728 142.505003 
L 293.2992 142.185157 
L 296.8704 140.534751 
L 300.4416 138.474941 
L 304.0128 134.483261 
L 307.584 133.881951 
L 311.1552 131.796553 
L 314.7264 130.491581 
L 318.2976 129.723951 
L 321.8688 126.499901 
L 325.44 124.235391 
L 329.0112 122.508221 
L 332.5824 121.164868 
L 336.1536 119.437699 
L 339.7248 118.516541 
L 343.296 114.537656 
L 346.8672 110.533181 
L 350.4384 106.541501 
L 354.0096 104.404929 
L 357.5808 102.549821 
L 361.152 102.51144 
L 364.7232 101.398376 
L 368.2944 99.530473 
L 371.8656 98.558141 
L 375.4368 94.566461 
L 379.008 93.606923 
L 382.5792 93.171932 
L 386.1504 91.854167 
L 389.7216 89.001139 
L 393.2928 79.776776 
L 396.864 78.036812 
L 400.4352 75.5676 
L 404.0064 67.545859 
L 407.5776 62.479496 
L 411.1488 60.867471 
L 414.72 59.306621 
L 418.2912 57.656216 
L 421.8624 55.417292 
L 425.4336 46.691889 
" style="fill:none;stroke:#2ca02c;stroke-linecap:square;stroke-width:1.5;"/>
   </g>
   <g id="line2d_34">
    <path clip-path="url(#p863177735d)" d="M 57.6 278.286092 
L 61.1712 274.294412 
L 64.7424 270.302732 
L 68.3136 266.311052 
L 71.8848 262.319372 
L 75.456 258.327692 
L 79.0272 254.336012 
L 82.5984 252.276203 
L 86.1696 251.662099 
L 89.7408 250.305951 
L 93.312 247.87512 
L 96.8832 246.352652 
L 100.4544 242.360972 
L 104.0256 240.992031 
L 107.5968 238.778696 
L 111.168 238.369292 
L 114.7392 234.377612 
L 118.3104 233.673951 
L 121.8816 230.385932 
L 125.4528 226.394252 
L 129.024 224.858991 
L 132.5952 224.846197 
L 136.1664 222.402572 
L 139.7376 219.741452 
L 143.3088 218.410892 
L 146.88 217.400179 
L 150.4512 215.673009 
L 154.0224 214.419212 
L 157.5936 213.933047 
L 161.1648 211.438247 
L 164.736 210.427532 
L 168.3072 209.250499 
L 171.8784 206.435852 
L 175.4496 203.672381 
L 179.0208 202.444172 
L 182.592 198.452492 
L 186.1632 194.448019 
L 189.7344 194.294492 
L 193.3056 192.567323 
L 196.8768 190.469132 
L 200.448 188.754757 
L 204.0192 186.490247 
L 207.5904 184.942191 
L 211.1616 183.215021 
L 214.7328 182.485772 
L 218.304 181.500647 
L 221.8752 179.760683 
L 225.4464 178.494092 
L 229.0176 174.502412 
L 232.5888 171.316744 
L 236.16 170.126917 
L 239.7312 169.576781 
L 243.3024 169.256936 
L 246.8736 166.519052 
L 250.4448 165.54672 
L 254.016 162.527372 
L 257.5872 159.149797 
L 261.1584 158.535692 
L 264.7296 157.141163 
L 268.3008 155.375612 
L 271.872 154.544012 
L 275.4432 152.957576 
L 279.0144 150.552332 
L 282.5856 149.145009 
L 286.1568 146.560652 
L 289.728 145.025391 
L 293.2992 144.679957 
L 296.8704 142.556179 
L 300.4416 138.577292 
L 304.0128 136.645421 
L 307.584 134.585612 
L 311.1552 133.024763 
L 314.7264 131.208037 
L 318.2976 130.593932 
L 321.8688 129.352929 
L 325.44 126.602252 
L 329.0112 122.610572 
L 332.5824 118.618892 
L 336.1536 118.324633 
L 339.7248 115.433224 
L 343.296 114.627212 
L 346.8672 111.377576 
L 350.4384 110.635532 
L 354.0096 106.643852 
L 357.5808 104.251403 
L 361.152 102.652172 
L 364.7232 102.498647 
L 368.2944 100.5156 
L 371.8656 98.660492 
L 375.4368 96.575096 
L 379.008 94.668812 
L 382.5792 93.338252 
L 386.1504 90.293317 
L 389.7216 86.135317 
L 393.2928 78.151957 
L 396.864 76.3992 
L 400.4352 74.672031 
L 404.0064 72.343551 
L 407.5776 63.336683 
L 411.1488 59.716024 
L 414.72 57.93768 
L 418.2912 56.184923 
L 421.8624 53.702917 
L 425.4336 47.242024 
" style="fill:none;stroke:#d62728;stroke-linecap:square;stroke-width:1.5;"/>
   </g>
   <g id="line2d_35">
    <path clip-path="url(#p863177735d)" d="M 57.6 280.038849 
L 61.1712 276.047169 
L 64.7424 272.055489 
L 68.3136 268.063809 
L 71.8848 264.072129 
L 75.456 260.067656 
L 79.0272 256.075976 
L 82.5984 251.70048 
L 86.1696 250.523447 
L 89.7408 249.090536 
L 93.312 247.568068 
L 96.8832 244.113729 
L 100.4544 243.909028 
L 104.0256 242.130683 
L 107.5968 240.122049 
L 111.168 237.959889 
L 114.7392 236.130369 
L 118.3104 232.138689 
L 121.8816 231.870019 
L 125.4528 228.147009 
L 129.024 226.675717 
L 132.5952 225.114868 
L 136.1664 220.214824 
L 139.7376 216.504609 
L 143.3088 212.397784 
L 146.88 212.321021 
L 150.4512 210.61944 
L 154.0224 208.943447 
L 157.5936 208.45728 
L 161.1648 206.525409 
L 164.736 204.529569 
L 168.3072 204.452807 
L 171.8784 200.461127 
L 175.4496 197.109139 
L 179.0208 196.469447 
L 182.592 195.433144 
L 186.1632 193.872296 
L 189.7344 192.477767 
L 193.3056 192.298652 
L 196.8768 188.486087 
L 200.448 187.091557 
L 204.0192 185.364388 
L 207.5904 184.481612 
L 211.1616 183.611631 
L 214.7328 180.51552 
L 218.304 176.511047 
L 221.8752 173.658019 
L 225.4464 172.519367 
L 229.0176 171.2016 
L 232.5888 170.86896 
L 236.16 168.271809 
L 239.7312 164.280129 
L 243.3024 163.461323 
L 246.8736 161.862092 
L 250.4448 160.288449 
L 254.016 156.296769 
L 257.5872 156.104861 
L 261.1584 154.416073 
L 264.7296 152.305089 
L 268.3008 151.90848 
L 271.872 148.313409 
L 275.4432 147.75048 
L 279.0144 146.842117 
L 282.5856 142.722499 
L 286.1568 140.969741 
L 289.728 140.381224 
L 293.2992 137.221144 
L 296.8704 136.683803 
L 300.4416 135.583532 
L 304.0128 132.564184 
L 307.584 132.423452 
L 311.1552 130.529963 
L 314.7264 128.62368 
L 318.2976 124.79832 
L 321.8688 124.606412 
L 325.44 123.045563 
L 329.0112 120.627527 
L 332.5824 118.132727 
L 336.1536 116.635847 
L 339.7248 116.379969 
L 343.296 112.644167 
L 346.8672 108.652487 
L 350.4384 108.025588 
L 354.0096 105.249323 
L 357.5808 104.660807 
L 361.152 103.496567 
L 364.7232 100.669127 
L 368.2944 99.044308 
L 371.8656 97.304344 
L 375.4368 96.677447 
L 379.008 92.672972 
L 382.5792 91.982104 
L 386.1504 91.355207 
L 389.7216 89.065108 
L 393.2928 87.325144 
L 396.864 85.597976 
L 400.4352 79.188259 
L 404.0064 77.281976 
L 407.5776 68.710099 
L 411.1488 65.204584 
L 414.72 63.464621 
L 418.2912 61.750247 
L 421.8624 59.26824 
L 425.4336 57.464308 
" style="fill:none;stroke:#9467bd;stroke-linecap:square;stroke-width:1.5;"/>
   </g>
   <g id="line2d_36">
    <path clip-path="url(#p863177735d)" d="M 57.6 278.286092 
L 61.1712 274.294412 
L 64.7424 270.289939 
L 68.3136 266.298259 
L 71.8848 262.319372 
L 75.456 258.314899 
L 79.0272 254.336012 
L 82.5984 251.662099 
L 86.1696 250.446683 
L 89.7408 250.357127 
L 93.312 246.339859 
L 96.8832 246.147951 
L 100.4544 242.360972 
L 104.0256 241.759661 
L 107.5968 238.458849 
L 111.168 238.369292 
L 114.7392 234.364819 
L 118.3104 233.648363 
L 121.8816 230.449901 
L 125.4528 230.385932 
L 129.024 226.394252 
L 132.5952 225.780148 
L 136.1664 224.487969 
L 139.7376 222.415367 
L 143.3088 220.278793 
L 146.88 218.526037 
L 150.4512 218.410892 
L 154.0224 216.786073 
L 157.5936 214.419212 
L 161.1648 211.591772 
L 164.736 210.427532 
L 168.3072 208.841096 
L 171.8784 206.435852 
L 175.4496 205.041323 
L 179.0208 202.444172 
L 182.592 201.830068 
L 186.1632 198.439699 
L 189.7344 194.460812 
L 193.3056 191.876456 
L 196.8768 190.456339 
L 200.448 188.946664 
L 204.0192 187.206701 
L 207.5904 186.477452 
L 211.1616 185.466739 
L 214.7328 182.472979 
L 218.304 179.415249 
L 221.8752 178.494092 
L 225.4464 177.547348 
L 229.0176 175.794591 
L 232.5888 174.502412 
L 236.16 174.067421 
L 239.7312 171.841292 
L 243.3024 170.523527 
L 246.8736 166.506259 
L 250.4448 164.459243 
L 254.016 162.527372 
L 257.5872 159.200972 
L 261.1584 158.535692 
L 264.7296 157.461009 
L 268.3008 154.531219 
L 271.872 153.929908 
L 275.4432 150.731447 
L 279.0144 150.539539 
L 282.5856 147.75048 
L 286.1568 146.547859 
L 289.728 144.667163 
L 293.2992 143.886739 
L 296.8704 142.581767 
L 300.4416 140.138141 
L 304.0128 138.564499 
L 307.584 134.713551 
L 311.1552 134.585612 
L 314.7264 130.888191 
L 318.2976 130.581139 
L 321.8688 127.216357 
L 325.44 126.602252 
L 329.0112 125.4636 
L 332.5824 122.597779 
L 336.1536 118.606099 
L 339.7248 116.853341 
L 343.296 114.614419 
L 346.8672 111.415957 
L 350.4384 110.635532 
L 354.0096 109.6632 
L 357.5808 107.910443 
L 361.152 106.643852 
L 364.7232 106.157687 
L 368.2944 102.639379 
L 371.8656 99.530473 
L 375.4368 98.660492 
L 379.008 95.346887 
L 382.5792 94.668812 
L 386.1504 92.557828 
L 389.7216 91.994899 
L 393.2928 88.399828 
L 396.864 86.3784 
L 400.4352 82.693772 
L 404.0064 80.941016 
L 407.5776 78.72768 
L 411.1488 74.838351 
L 414.72 72.996037 
L 418.2912 65.396492 
L 421.8624 63.234332 
L 425.4336 60.803501 
" style="fill:none;stroke:#8c564b;stroke-linecap:square;stroke-width:1.5;"/>
   </g>
   <g id="line2d_37">
    <path clip-path="url(#p863177735d)" d="M 57.6 278.247711 
L 61.1712 274.256031 
L 64.7424 270.264351 
L 68.3136 266.272671 
L 71.8848 262.280991 
L 75.456 258.289311 
L 79.0272 254.297631 
L 82.5984 253.235741 
L 86.1696 250.856087 
L 89.7408 250.241981 
L 93.312 246.314271 
L 96.8832 246.109569 
L 100.4544 242.322591 
L 104.0256 242.066713 
L 107.5968 238.330911 
L 111.168 238.266941 
L 114.7392 234.761428 
L 118.3104 234.339231 
L 121.8816 230.347551 
L 125.4528 228.006277 
L 129.024 227.008357 
L 132.5952 226.355871 
L 136.1664 222.415367 
L 139.7376 218.372511 
L 143.3088 217.489736 
L 146.88 214.508769 
L 150.4512 214.380831 
L 154.0224 212.756012 
L 157.5936 210.389151 
L 161.1648 207.638473 
L 164.736 206.397471 
L 168.3072 204.580744 
L 171.8784 202.405791 
L 175.4496 202.277852 
L 179.0208 199.552763 
L 182.592 198.414111 
L 186.1632 194.755071 
L 189.7344 194.422431 
L 193.3056 193.002313 
L 196.8768 190.430751 
L 200.448 189.010633 
L 204.0192 186.439071 
L 207.5904 183.918683 
L 211.1616 182.447391 
L 214.7328 178.455711 
L 218.304 177.918369 
L 221.8752 174.464031 
L 225.4464 173.658019 
L 229.0176 173.402141 
L 232.5888 171.918056 
L 236.16 170.408381 
L 239.7312 170.178092 
L 243.3024 166.480671 
L 246.8736 165.725833 
L 250.4448 163.320591 
L 254.016 162.488991 
L 257.5872 161.542247 
L 261.1584 158.497311 
L 264.7296 154.505631 
L 268.3008 151.255993 
L 271.872 150.513951 
L 275.4432 147.840037 
L 279.0144 147.174757 
L 282.5856 146.522271 
L 286.1568 144.692751 
L 289.728 142.709704 
L 293.2992 142.581767 
L 296.8704 138.538911 
L 300.4416 134.547231 
L 304.0128 134.189003 
L 307.584 130.581139 
L 311.1552 130.555551 
L 314.7264 126.563871 
L 318.2976 126.244024 
L 321.8688 124.504061 
L 325.44 122.572191 
L 329.0112 119.335348 
L 332.5824 118.580511 
L 336.1536 117.582591 
L 339.7248 115.842628 
L 343.296 114.588831 
L 346.8672 111.403163 
L 350.4384 110.597151 
L 354.0096 107.936031 
L 357.5808 106.605471 
L 361.152 103.598917 
L 364.7232 102.613791 
L 368.2944 98.622111 
L 371.8656 96.19128 
L 375.4368 94.630431 
L 379.008 93.568541 
L 382.5792 92.084456 
L 386.1504 88.118363 
L 389.7216 86.352812 
L 393.2928 84.625643 
L 396.864 74.787176 
L 400.4352 63.937993 
L 404.0064 60.701151 
L 407.5776 57.988856 
L 411.1488 54.969508 
L 414.72 53.331896 
L 418.2912 51.860603 
L 421.8624 50.977828 
L 425.4336 49.762412 
" style="fill:none;stroke:#e377c2;stroke-linecap:square;stroke-width:1.5;"/>
   </g>
   <g id="line2d_38">
    <path clip-path="url(#p863177735d)" d="M 57.6 280.576191 
L 61.1712 276.584511 
L 64.7424 272.592831 
L 68.3136 268.601151 
L 71.8848 264.609471 
L 75.456 260.617791 
L 79.0272 256.626111 
L 82.5984 252.903101 
L 86.1696 251.457397 
L 89.7408 250.101249 
L 93.312 248.642751 
L 96.8832 247.478511 
L 100.4544 244.651071 
L 104.0256 243.538007 
L 107.5968 240.659391 
L 111.168 238.458849 
L 114.7392 236.667711 
L 118.3104 233.290136 
L 121.8816 232.676031 
L 125.4528 231.524584 
L 129.024 228.684351 
L 132.5952 225.204424 
L 136.1664 225.178837 
L 139.7376 223.413287 
L 143.3088 222.709624 
L 146.88 221.673323 
L 150.4512 220.624228 
L 154.0224 216.709311 
L 157.5936 212.717631 
L 161.1648 210.043717 
L 164.736 208.725951 
L 168.3072 208.316548 
L 171.8784 206.589379 
L 175.4496 204.734271 
L 179.0208 200.742591 
L 182.592 199.284092 
L 186.1632 197.045169 
L 189.7344 196.750911 
L 193.3056 195.343588 
L 196.8768 192.759231 
L 200.448 188.767551 
L 204.0192 184.775871 
L 207.5904 183.880301 
L 211.1616 182.217101 
L 214.7328 180.784191 
L 218.304 180.566696 
L 221.8752 177.585729 
L 225.4464 176.792511 
L 229.0176 175.103723 
L 232.5888 173.069501 
L 236.16 171.623797 
L 239.7312 168.809151 
L 243.3024 168.476511 
L 246.8736 166.800517 
L 250.4448 165.265256 
L 254.016 164.817471 
L 257.5872 160.825791 
L 261.1584 156.834111 
L 264.7296 152.983163 
L 268.3008 152.842431 
L 271.872 150.667477 
L 275.4432 148.850751 
L 279.0144 147.686511 
L 282.5856 145.370824 
L 286.1568 144.692751 
L 289.728 142.914407 
L 293.2992 142.888819 
L 296.8704 140.790628 
L 300.4416 138.833169 
L 304.0128 137.080412 
L 307.584 136.875711 
L 311.1552 132.884031 
L 314.7264 131.220831 
L 318.2976 128.892351 
L 321.8688 128.009576 
L 325.44 124.939052 
L 329.0112 124.900671 
L 332.5824 120.908991 
L 336.1536 116.917311 
L 339.7248 116.546289 
L 343.296 114.806327 
L 346.8672 113.104744 
L 350.4384 112.925631 
L 354.0096 111.377576 
L 357.5808 108.933951 
L 361.152 108.307052 
L 364.7232 106.362388 
L 368.2944 104.942271 
L 371.8656 103.087163 
L 375.4368 101.3472 
L 379.008 100.950591 
L 382.5792 96.958911 
L 386.1504 95.538793 
L 389.7216 93.235901 
L 393.2928 82.143637 
L 396.864 80.454849 
L 400.4352 78.100781 
L 404.0064 73.763668 
L 407.5776 70.002277 
L 411.1488 68.211139 
L 414.72 59.7672 
L 418.2912 58.104 
L 421.8624 56.4408 
L 425.4336 54.764807 
" style="fill:none;stroke:#7f7f7f;stroke-linecap:square;stroke-width:1.5;"/>
   </g>
   <g id="patch_3">
    <path d="M 57.6 307.584 
L 57.6 41.472 
" style="fill:none;stroke:#000000;stroke-linecap:square;stroke-linejoin:miter;stroke-width:0.8;"/>
   </g>
   <g id="patch_4">
    <path d="M 414.72 307.584 
L 414.72 41.472 
" style="fill:none;stroke:#000000;stroke-linecap:square;stroke-linejoin:miter;stroke-width:0.8;"/>
   </g>
   <g id="patch_5">
    <path d="M 57.6 307.584 
L 414.72 307.584 
" style="fill:none;stroke:#000000;stroke-linecap:square;stroke-linejoin:miter;stroke-width:0.8;"/>
   </g>
   <g id="patch_6">
    <path d="M 57.6 41.472 
L 414.72 41.472 
" style="fill:none;stroke:#000000;stroke-linecap:square;stroke-linejoin:miter;stroke-width:0.8;"/>
   </g>
   <g id="legend_1">
    <g id="patch_7">
     <path d="M 64.6 166.897 
L 167.282812 166.897 
Q 169.282812 166.897 169.282812 164.897 
L 169.282812 48.472 
Q 169.282812 46.472 167.282812 46.472 
L 64.6 46.472 
Q 62.6 46.472 62.6 48.472 
L 62.6 164.897 
Q 62.6 166.897 64.6 166.897 
z
" style="fill:#ffffff;opacity:0.8;stroke:#cccccc;stroke-linejoin:miter;"/>
    </g>
    <g id="line2d_39">
     <path d="M 66.6 54.570438 
L 86.6 54.570438 
" style="fill:none;stroke:#1f77b4;stroke-linecap:square;stroke-width:1.5;"/>
    </g>
    <g id="line2d_40"/>
    <g id="text_16">
     <!-- Exit number 0 -->
     <defs>
      <path d="M 9.8125 72.90625 
L 55.90625 72.90625 
L 55.90625 64.59375 
L 19.671875 64.59375 
L 19.671875 43.015625 
L 54.390625 43.015625 
L 54.390625 34.71875 
L 19.671875 34.71875 
L 19.671875 8.296875 
L 56.78125 8.296875 
L 56.78125 0 
L 9.8125 0 
z
" id="DejaVuSans-69"/>
      <path d="M 54.890625 54.6875 
L 35.109375 28.078125 
L 55.90625 0 
L 45.3125 0 
L 29.390625 21.484375 
L 13.484375 0 
L 2.875 0 
L 24.125 28.609375 
L 4.6875 54.6875 
L 15.28125 54.6875 
L 29.78125 35.203125 
L 44.28125 54.6875 
z
" id="DejaVuSans-120"/>
      <path d="M 9.421875 54.6875 
L 18.40625 54.6875 
L 18.40625 0 
L 9.421875 0 
z
M 9.421875 75.984375 
L 18.40625 75.984375 
L 18.40625 64.59375 
L 9.421875 64.59375 
z
" id="DejaVuSans-105"/>
      <path d="M 18.3125 70.21875 
L 18.3125 54.6875 
L 36.8125 54.6875 
L 36.8125 47.703125 
L 18.3125 47.703125 
L 18.3125 18.015625 
Q 18.3125 11.328125 20.140625 9.421875 
Q 21.96875 7.515625 27.59375 7.515625 
L 36.8125 7.515625 
L 36.8125 0 
L 27.59375 0 
Q 17.1875 0 13.234375 3.875 
Q 9.28125 7.765625 9.28125 18.015625 
L 9.28125 47.703125 
L 2.6875 47.703125 
L 2.6875 54.6875 
L 9.28125 54.6875 
L 9.28125 70.21875 
z
" id="DejaVuSans-116"/>
      <path id="DejaVuSans-32"/>
      <path d="M 54.890625 33.015625 
L 54.890625 0 
L 45.90625 0 
L 45.90625 32.71875 
Q 45.90625 40.484375 42.875 44.328125 
Q 39.84375 48.1875 33.796875 48.1875 
Q 26.515625 48.1875 22.3125 43.546875 
Q 18.109375 38.921875 18.109375 30.90625 
L 18.109375 0 
L 9.078125 0 
L 9.078125 54.6875 
L 18.109375 54.6875 
L 18.109375 46.1875 
Q 21.34375 51.125 25.703125 53.5625 
Q 30.078125 56 35.796875 56 
Q 45.21875 56 50.046875 50.171875 
Q 54.890625 44.34375 54.890625 33.015625 
z
" id="DejaVuSans-110"/>
      <path d="M 8.5 21.578125 
L 8.5 54.6875 
L 17.484375 54.6875 
L 17.484375 21.921875 
Q 17.484375 14.15625 20.5 10.265625 
Q 23.53125 6.390625 29.59375 6.390625 
Q 36.859375 6.390625 41.078125 11.03125 
Q 45.3125 15.671875 45.3125 23.6875 
L 45.3125 54.6875 
L 54.296875 54.6875 
L 54.296875 0 
L 45.3125 0 
L 45.3125 8.40625 
Q 42.046875 3.421875 37.71875 1 
Q 33.40625 -1.421875 27.6875 -1.421875 
Q 18.265625 -1.421875 13.375 4.4375 
Q 8.5 10.296875 8.5 21.578125 
z
M 31.109375 56 
z
" id="DejaVuSans-117"/>
      <path d="M 52 44.1875 
Q 55.375 50.25 60.0625 53.125 
Q 64.75 56 71.09375 56 
Q 79.640625 56 84.28125 50.015625 
Q 88.921875 44.046875 88.921875 33.015625 
L 88.921875 0 
L 79.890625 0 
L 79.890625 32.71875 
Q 79.890625 40.578125 77.09375 44.375 
Q 74.3125 48.1875 68.609375 48.1875 
Q 61.625 48.1875 57.5625 43.546875 
Q 53.515625 38.921875 53.515625 30.90625 
L 53.515625 0 
L 44.484375 0 
L 44.484375 32.71875 
Q 44.484375 40.625 41.703125 44.40625 
Q 38.921875 48.1875 33.109375 48.1875 
Q 26.21875 48.1875 22.15625 43.53125 
Q 18.109375 38.875 18.109375 30.90625 
L 18.109375 0 
L 9.078125 0 
L 9.078125 54.6875 
L 18.109375 54.6875 
L 18.109375 46.1875 
Q 21.1875 51.21875 25.484375 53.609375 
Q 29.78125 56 35.6875 56 
Q 41.65625 56 45.828125 52.96875 
Q 50 49.953125 52 44.1875 
z
" id="DejaVuSans-109"/>
      <path d="M 48.6875 27.296875 
Q 48.6875 37.203125 44.609375 42.84375 
Q 40.53125 48.484375 33.40625 48.484375 
Q 26.265625 48.484375 22.1875 42.84375 
Q 18.109375 37.203125 18.109375 27.296875 
Q 18.109375 17.390625 22.1875 11.75 
Q 26.265625 6.109375 33.40625 6.109375 
Q 40.53125 6.109375 44.609375 11.75 
Q 48.6875 17.390625 48.6875 27.296875 
z
M 18.109375 46.390625 
Q 20.953125 51.265625 25.265625 53.625 
Q 29.59375 56 35.59375 56 
Q 45.5625 56 51.78125 48.09375 
Q 58.015625 40.1875 58.015625 27.296875 
Q 58.015625 14.40625 51.78125 6.484375 
Q 45.5625 -1.421875 35.59375 -1.421875 
Q 29.59375 -1.421875 25.265625 0.953125 
Q 20.953125 3.328125 18.109375 8.203125 
L 18.109375 0 
L 9.078125 0 
L 9.078125 75.984375 
L 18.109375 75.984375 
z
" id="DejaVuSans-98"/>
      <path d="M 56.203125 29.59375 
L 56.203125 25.203125 
L 14.890625 25.203125 
Q 15.484375 15.921875 20.484375 11.0625 
Q 25.484375 6.203125 34.421875 6.203125 
Q 39.59375 6.203125 44.453125 7.46875 
Q 49.3125 8.734375 54.109375 11.28125 
L 54.109375 2.78125 
Q 49.265625 0.734375 44.1875 -0.34375 
Q 39.109375 -1.421875 33.890625 -1.421875 
Q 20.796875 -1.421875 13.15625 6.1875 
Q 5.515625 13.8125 5.515625 26.8125 
Q 5.515625 40.234375 12.765625 48.109375 
Q 20.015625 56 32.328125 56 
Q 43.359375 56 49.78125 48.890625 
Q 56.203125 41.796875 56.203125 29.59375 
z
M 47.21875 32.234375 
Q 47.125 39.59375 43.09375 43.984375 
Q 39.0625 48.390625 32.421875 48.390625 
Q 24.90625 48.390625 20.390625 44.140625 
Q 15.875 39.890625 15.1875 32.171875 
z
" id="DejaVuSans-101"/>
      <path d="M 41.109375 46.296875 
Q 39.59375 47.171875 37.8125 47.578125 
Q 36.03125 48 33.890625 48 
Q 26.265625 48 22.1875 43.046875 
Q 18.109375 38.09375 18.109375 28.8125 
L 18.109375 0 
L 9.078125 0 
L 9.078125 54.6875 
L 18.109375 54.6875 
L 18.109375 46.1875 
Q 20.953125 51.171875 25.484375 53.578125 
Q 30.03125 56 36.53125 56 
Q 37.453125 56 38.578125 55.875 
Q 39.703125 55.765625 41.0625 55.515625 
z
" id="DejaVuSans-114"/>
     </defs>
     <g transform="translate(94.6 58.070438)scale(0.1 -0.1)">
      <use xlink:href="#DejaVuSans-69"/>
      <use x="63.183594" xlink:href="#DejaVuSans-120"/>
      <use x="122.363281" xlink:href="#DejaVuSans-105"/>
      <use x="150.146484" xlink:href="#DejaVuSans-116"/>
      <use x="189.355469" xlink:href="#DejaVuSans-32"/>
      <use x="221.142578" xlink:href="#DejaVuSans-110"/>
      <use x="284.521484" xlink:href="#DejaVuSans-117"/>
      <use x="347.900391" xlink:href="#DejaVuSans-109"/>
      <use x="445.3125" xlink:href="#DejaVuSans-98"/>
      <use x="508.789062" xlink:href="#DejaVuSans-101"/>
      <use x="570.3125" xlink:href="#DejaVuSans-114"/>
      <use x="611.425781" xlink:href="#DejaVuSans-32"/>
      <use x="643.212891" xlink:href="#DejaVuSans-48"/>
     </g>
    </g>
    <g id="line2d_41">
     <path d="M 66.6 69.248563 
L 86.6 69.248563 
" style="fill:none;stroke:#ff7f0e;stroke-linecap:square;stroke-width:1.5;"/>
    </g>
    <g id="line2d_42"/>
    <g id="text_17">
     <!-- Exit number 1 -->
     <g transform="translate(94.6 72.748563)scale(0.1 -0.1)">
      <use xlink:href="#DejaVuSans-69"/>
      <use x="63.183594" xlink:href="#DejaVuSans-120"/>
      <use x="122.363281" xlink:href="#DejaVuSans-105"/>
      <use x="150.146484" xlink:href="#DejaVuSans-116"/>
      <use x="189.355469" xlink:href="#DejaVuSans-32"/>
      <use x="221.142578" xlink:href="#DejaVuSans-110"/>
      <use x="284.521484" xlink:href="#DejaVuSans-117"/>
      <use x="347.900391" xlink:href="#DejaVuSans-109"/>
      <use x="445.3125" xlink:href="#DejaVuSans-98"/>
      <use x="508.789062" xlink:href="#DejaVuSans-101"/>
      <use x="570.3125" xlink:href="#DejaVuSans-114"/>
      <use x="611.425781" xlink:href="#DejaVuSans-32"/>
      <use x="643.212891" xlink:href="#DejaVuSans-49"/>
     </g>
    </g>
    <g id="line2d_43">
     <path d="M 66.6 83.926688 
L 86.6 83.926688 
" style="fill:none;stroke:#2ca02c;stroke-linecap:square;stroke-width:1.5;"/>
    </g>
    <g id="line2d_44"/>
    <g id="text_18">
     <!-- Exit number 2 -->
     <g transform="translate(94.6 87.426688)scale(0.1 -0.1)">
      <use xlink:href="#DejaVuSans-69"/>
      <use x="63.183594" xlink:href="#DejaVuSans-120"/>
      <use x="122.363281" xlink:href="#DejaVuSans-105"/>
      <use x="150.146484" xlink:href="#DejaVuSans-116"/>
      <use x="189.355469" xlink:href="#DejaVuSans-32"/>
      <use x="221.142578" xlink:href="#DejaVuSans-110"/>
      <use x="284.521484" xlink:href="#DejaVuSans-117"/>
      <use x="347.900391" xlink:href="#DejaVuSans-109"/>
      <use x="445.3125" xlink:href="#DejaVuSans-98"/>
      <use x="508.789062" xlink:href="#DejaVuSans-101"/>
      <use x="570.3125" xlink:href="#DejaVuSans-114"/>
      <use x="611.425781" xlink:href="#DejaVuSans-32"/>
      <use x="643.212891" xlink:href="#DejaVuSans-50"/>
     </g>
    </g>
    <g id="line2d_45">
     <path d="M 66.6 98.604813 
L 86.6 98.604813 
" style="fill:none;stroke:#d62728;stroke-linecap:square;stroke-width:1.5;"/>
    </g>
    <g id="line2d_46"/>
    <g id="text_19">
     <!-- Exit number 3 -->
     <defs>
      <path d="M 40.578125 39.3125 
Q 47.65625 37.796875 51.625 33 
Q 55.609375 28.21875 55.609375 21.1875 
Q 55.609375 10.40625 48.1875 4.484375 
Q 40.765625 -1.421875 27.09375 -1.421875 
Q 22.515625 -1.421875 17.65625 -0.515625 
Q 12.796875 0.390625 7.625 2.203125 
L 7.625 11.71875 
Q 11.71875 9.328125 16.59375 8.109375 
Q 21.484375 6.890625 26.8125 6.890625 
Q 36.078125 6.890625 40.9375 10.546875 
Q 45.796875 14.203125 45.796875 21.1875 
Q 45.796875 27.640625 41.28125 31.265625 
Q 36.765625 34.90625 28.71875 34.90625 
L 20.21875 34.90625 
L 20.21875 43.015625 
L 29.109375 43.015625 
Q 36.375 43.015625 40.234375 45.921875 
Q 44.09375 48.828125 44.09375 54.296875 
Q 44.09375 59.90625 40.109375 62.90625 
Q 36.140625 65.921875 28.71875 65.921875 
Q 24.65625 65.921875 20.015625 65.03125 
Q 15.375 64.15625 9.8125 62.3125 
L 9.8125 71.09375 
Q 15.4375 72.65625 20.34375 73.4375 
Q 25.25 74.21875 29.59375 74.21875 
Q 40.828125 74.21875 47.359375 69.109375 
Q 53.90625 64.015625 53.90625 55.328125 
Q 53.90625 49.265625 50.4375 45.09375 
Q 46.96875 40.921875 40.578125 39.3125 
z
" id="DejaVuSans-51"/>
     </defs>
     <g transform="translate(94.6 102.104813)scale(0.1 -0.1)">
      <use xlink:href="#DejaVuSans-69"/>
      <use x="63.183594" xlink:href="#DejaVuSans-120"/>
      <use x="122.363281" xlink:href="#DejaVuSans-105"/>
      <use x="150.146484" xlink:href="#DejaVuSans-116"/>
      <use x="189.355469" xlink:href="#DejaVuSans-32"/>
      <use x="221.142578" xlink:href="#DejaVuSans-110"/>
      <use x="284.521484" xlink:href="#DejaVuSans-117"/>
      <use x="347.900391" xlink:href="#DejaVuSans-109"/>
      <use x="445.3125" xlink:href="#DejaVuSans-98"/>
      <use x="508.789062" xlink:href="#DejaVuSans-101"/>
      <use x="570.3125" xlink:href="#DejaVuSans-114"/>
      <use x="611.425781" xlink:href="#DejaVuSans-32"/>
      <use x="643.212891" xlink:href="#DejaVuSans-51"/>
     </g>
    </g>
    <g id="line2d_47">
     <path d="M 66.6 113.282938 
L 86.6 113.282938 
" style="fill:none;stroke:#9467bd;stroke-linecap:square;stroke-width:1.5;"/>
    </g>
    <g id="line2d_48"/>
    <g id="text_20">
     <!-- Exit number 4 -->
     <g transform="translate(94.6 116.782938)scale(0.1 -0.1)">
      <use xlink:href="#DejaVuSans-69"/>
      <use x="63.183594" xlink:href="#DejaVuSans-120"/>
      <use x="122.363281" xlink:href="#DejaVuSans-105"/>
      <use x="150.146484" xlink:href="#DejaVuSans-116"/>
      <use x="189.355469" xlink:href="#DejaVuSans-32"/>
      <use x="221.142578" xlink:href="#DejaVuSans-110"/>
      <use x="284.521484" xlink:href="#DejaVuSans-117"/>
      <use x="347.900391" xlink:href="#DejaVuSans-109"/>
      <use x="445.3125" xlink:href="#DejaVuSans-98"/>
      <use x="508.789062" xlink:href="#DejaVuSans-101"/>
      <use x="570.3125" xlink:href="#DejaVuSans-114"/>
      <use x="611.425781" xlink:href="#DejaVuSans-32"/>
      <use x="643.212891" xlink:href="#DejaVuSans-52"/>
     </g>
    </g>
    <g id="line2d_49">
     <path d="M 66.6 127.961063 
L 86.6 127.961063 
" style="fill:none;stroke:#8c564b;stroke-linecap:square;stroke-width:1.5;"/>
    </g>
    <g id="line2d_50"/>
    <g id="text_21">
     <!-- Exit number 5 -->
     <g transform="translate(94.6 131.461063)scale(0.1 -0.1)">
      <use xlink:href="#DejaVuSans-69"/>
      <use x="63.183594" xlink:href="#DejaVuSans-120"/>
      <use x="122.363281" xlink:href="#DejaVuSans-105"/>
      <use x="150.146484" xlink:href="#DejaVuSans-116"/>
      <use x="189.355469" xlink:href="#DejaVuSans-32"/>
      <use x="221.142578" xlink:href="#DejaVuSans-110"/>
      <use x="284.521484" xlink:href="#DejaVuSans-117"/>
      <use x="347.900391" xlink:href="#DejaVuSans-109"/>
      <use x="445.3125" xlink:href="#DejaVuSans-98"/>
      <use x="508.789062" xlink:href="#DejaVuSans-101"/>
      <use x="570.3125" xlink:href="#DejaVuSans-114"/>
      <use x="611.425781" xlink:href="#DejaVuSans-32"/>
      <use x="643.212891" xlink:href="#DejaVuSans-53"/>
     </g>
    </g>
    <g id="line2d_51">
     <path d="M 66.6 142.639188 
L 86.6 142.639188 
" style="fill:none;stroke:#e377c2;stroke-linecap:square;stroke-width:1.5;"/>
    </g>
    <g id="line2d_52"/>
    <g id="text_22">
     <!-- Exit number 6 -->
     <g transform="translate(94.6 146.139188)scale(0.1 -0.1)">
      <use xlink:href="#DejaVuSans-69"/>
      <use x="63.183594" xlink:href="#DejaVuSans-120"/>
      <use x="122.363281" xlink:href="#DejaVuSans-105"/>
      <use x="150.146484" xlink:href="#DejaVuSans-116"/>
      <use x="189.355469" xlink:href="#DejaVuSans-32"/>
      <use x="221.142578" xlink:href="#DejaVuSans-110"/>
      <use x="284.521484" xlink:href="#DejaVuSans-117"/>
      <use x="347.900391" xlink:href="#DejaVuSans-109"/>
      <use x="445.3125" xlink:href="#DejaVuSans-98"/>
      <use x="508.789062" xlink:href="#DejaVuSans-101"/>
      <use x="570.3125" xlink:href="#DejaVuSans-114"/>
      <use x="611.425781" xlink:href="#DejaVuSans-32"/>
      <use x="643.212891" xlink:href="#DejaVuSans-54"/>
     </g>
    </g>
    <g id="line2d_53">
     <path d="M 66.6 157.317313 
L 86.6 157.317313 
" style="fill:none;stroke:#7f7f7f;stroke-linecap:square;stroke-width:1.5;"/>
    </g>
    <g id="line2d_54"/>
    <g id="text_23">
     <!-- Exit number 7 -->
     <g transform="translate(94.6 160.817313)scale(0.1 -0.1)">
      <use xlink:href="#DejaVuSans-69"/>
      <use x="63.183594" xlink:href="#DejaVuSans-120"/>
      <use x="122.363281" xlink:href="#DejaVuSans-105"/>
      <use x="150.146484" xlink:href="#DejaVuSans-116"/>
      <use x="189.355469" xlink:href="#DejaVuSans-32"/>
      <use x="221.142578" xlink:href="#DejaVuSans-110"/>
      <use x="284.521484" xlink:href="#DejaVuSans-117"/>
      <use x="347.900391" xlink:href="#DejaVuSans-109"/>
      <use x="445.3125" xlink:href="#DejaVuSans-98"/>
      <use x="508.789062" xlink:href="#DejaVuSans-101"/>
      <use x="570.3125" xlink:href="#DejaVuSans-114"/>
      <use x="611.425781" xlink:href="#DejaVuSans-32"/>
      <use x="643.212891" xlink:href="#DejaVuSans-55"/>
     </g>
    </g>
   </g>
  </g>
 </g>
 <defs>
  <clipPath id="p863177735d">
   <rect height="266.112" width="357.12" x="57.6" y="41.472"/>
  </clipPath>
 </defs>
</svg>
